<svg xmlns="http://www.w3.org/2000/svg" viewBox="0 0 441.1 134.6"><style>.st0{fill:#2e3192}.st0,.st1,.st2,.st3,.st4{fill-rule:evenodd;clip-rule:evenodd}.st1{fill:#fff}.st2{fill:#ed1c24}.st3,.st4{fill:none;stroke:#2e3192;stroke-width:1.0089;stroke-miterlimit:10}.st4{fill:#2e3192;stroke-width:.216}</style><g id="cdr_x5F_layer2"><path class="st0" d="M353.1 129.6l.8-2.1 54.6.8 4 2.7 2.3-.3 15.4-15.2-.7-24.5c3.1-2.4 5.2-6.4 5.4-13.3 3.1-7.3 4-13.8 3.4-19.8-.7-3.3.1-7.8-4.5-10.2-8.8-6-19.2-10.2-31.7-10.8-10.3-.9-21.5.9-30.6 5-11.7 2-20.8 5.7-19 18.3l-.4 13.5c-4 2.5-9.2 4.3-15.6 6.1-4.9 1.5-7 4.8-2.5 10.4 0 0 4.1 4 7.5 4.4-1.2 3.2.4 22.7 2.6 33.1l4.7.1.7 1.8h3.6z"/><path class="st1" d="M414.6 100.7v-.3c-.2-2.4 0-4.5.7-6.2.8-1.8 2.1-3.1 4.3-4.1 1.9-.6 3.1-1.3 3.7-2.1.3-.4.5-.7.5-1.1 0-.3-.1-.7-.4-1-.5-.5-1.3-1-2.5-1.3-.5-.1-1-.2-1.5-.2s-1 0-1.4.1c-2.4.4-4.3 2-5.8 4.9l-.5 1.4c-1.6 4.4-3.2 8.9-2.5 13.3l.1.6h-.1l-.3 22.4h.4l.2.1 2.9 1.9h.1l.1.1.6.7 1.5-.2.1-.1-.2-28.9zm-7.2.5c.2-3.6 1.4-7.1 2.7-10.6l.5-1.4c1.7-3.3 4.1-5.1 6.9-5.6.6-.1 1.2-.1 1.8-.1.6 0 1.2.1 1.9.2h.1c1.5.4 2.6 1 3.3 1.8.5.5.7 1.1.7 1.7 0 .6-.2 1.2-.7 1.8-.8.9-2.2 1.8-4.4 2.5-1.8.8-2.9 1.9-3.5 3.4-.6 1.3-.8 2.9-.7 4.8 4.9-3.3 9.3-4.5 12.8-8.1 2.7-2.9 2.9-3.5 4-6.3.8-2.1 1.2-4.6 1.4-7.4v-.2l.2-.4c-2.5-3-5.4-4.5-8.8-4.6-5 .1-8.8 1.4-11.4 4.1-9.2 5.9-11.4 14.2-6.8 24.4zm-36.5-58.9c3.8 6.6 6.4 13.6 7.4 21.2 1 7.5.5 15.6-1.9 24.3 5.2 0 10.4.1 15.5.5l-.1.6.1-.6c2 .1 4 .3 6 .5 1.5.1 3 .3 4.4.5 1.1-12.3 5.3-24.2 12.2-35 1.4-2.1 2.8-4.2 4.4-6.2 1.5-1.9 3.1-3.8 4.8-5.7-6.5-3-13.5-4.7-21-4.9h-.1c-6.1-.6-11.6-.3-16.7.7-5.1.9-9.8 2.4-14.2 4.1h-.8zm5.1 46.8h-.5c-4.4 0-8.8.2-13.3.5L348.7 93v.1c.1.8.2 1.7.3 2.6v.1l.3 13.6 58.1.9.1-5.6c-2.9-5.1-4.2-9.8-4-14.1-1.9-.2-3.9-.4-5.8-.6-2-.2-3.9-.3-5.9-.5-5.2-.3-10.5-.5-15.8-.4zm-1.2-1.3c2.4-8.7 2.9-16.7 1.9-24.2s-3.5-14.4-7.4-21c-5.3 1.2-9.4 2.3-12 4.5-3 2.4-4.4 6.2-3.9 12.8l-.4 11.7c.7-.5 1.5-.8 2.4-.9 1.7-.3 3.8-.2 6.4.3h.1c2.5.7 4.5 1.8 6 3.3 1.5 1.5 2.4 3.3 2.8 5.5.2 2.2-.2 4.1-1.1 5.6-.6 1.1-1.6 1.9-2.7 2.6 2.6-.1 5.2-.1 7.9-.2zm32.6 23.7l-58.1-.9.4 16.7.4 1.4h2.5l.6-1.8.2-.5h.6l53.3.7v-.5h-.6l-54.8-1h-.8v-.6l.2-11.2v-.6h.8l54.8.8h.6l-.1-2.5zm8.7 16.7l13.3-13.4-.5-21.7c-2 1.7-4.1 2.8-6.5 4.1-2 1-4.1 2.2-6.3 3.7v27.3zm18.8-52.7c1.1-3.2 1.9-6.5 2.3-9.6.5-3.8.5-7.6.1-11.3-.1-1.6-.5-2.9-1.2-4s-1.6-1.9-2.8-2.5h-.2l-.2-.1c-1.2-.9-2.5-1.8-3.8-2.6-1.3-.8-2.6-1.5-4-2.2l-.3-.2c-1.7 1.8-3.3 3.8-4.8 5.7-1.5 2-3 4.1-4.3 6.2-6.3 9.9-10.3 20.7-11.7 31.9.4-1.4.9-2.7 1.8-4.1l.3-.3c.8-1.2 1.8-2.4 2.9-3.5 1.1-1.1 2.4-2.2 3.9-3.1 2-2 4.6-3.3 7.8-4 .6-.1 1.3-.2 2-.3.7-.1 1.4-.1 2.1-.2h.6c2.1.1 4.1.6 5.9 1.6 1.5.6 2.6 1.5 3.6 2.6zm-87.8 16.8l-.1-.2-.3-1.2c-1-3.6-3.1-6.2-6.3-7-.4-.1-.7-.1-1.1-.2h-.9c-1.3 0-2.2.6-2.4 1.6l-.8-.1.8.1v.6l.3.9c.9 1.7 3.5 4.1 7.7 6.1l.4.2v.3l.6 33.4h3.1l-.7-31v-.1c0-.9-.1-1.7-.3-2.5.1-.3 0-.6 0-.9zm1.4-.6l11.5-2.9 1.9-.5 2.8-.7c1.6-.6 2.8-1.5 3.5-2.7.8-1.3 1.1-2.9 1-4.9-.4-2-1.2-3.6-2.5-4.9-1.3-1.3-3-2.2-5.3-2.9-2.3-.4-4.2-.6-5.6-.3-1.8.3-2.2 1.5-3.5 2.4-2.9 1.9-6.3 3-9.8 4-1.9.6-3.9 1.2-5.6 1.9h-.1c-2 .6-3.2 1.4-3.9 2.3-.6.9-.7 1.8-.4 2.8.3 1.1 1 2.2 1.8 3.2 2.1 2.5 5.4 4.6 7.4 5.1l.7.2-.2.6c-.2.6-.3 1.5-.4 2.6-.1 1.1-.1 2.5-.1 4 .1 5.2.7 12.2 1.6 18.3l-.5-25.7c-4.4-2.2-7-4.6-8-6.5-.2-.4-.4-.8-.4-1.2-.1-.4-.1-.7 0-1.1.4-1.6 1.8-2.5 3.9-2.5h1.2c.4 0 .8.1 1.3.2 3.8.9 6.2 3.9 7.3 7.9.2.6.3 1 .4 1.3zm-4.2 36.3h-.8l-.1-.5c-1.8-6.8-3-18.6-3.1-26.4 0-1.5 0-2.9.1-4.1.1-.9.2-1.7.3-2.3-2.2-.8-5.5-2.9-7.6-5.4-1-1.2-1.7-2.4-2.1-3.6-.3-1.3-.2-2.6.6-3.7s2.3-2.1 4.6-2.9c1.9-.8 3.8-1.4 5.8-2 3.4-1.1 6.8-2.1 9.5-3.9L352 60c-.5-7 1-11.1 4.3-13.8 3.3-2.7 8.3-3.9 14.9-5.3 4.5-1.7 9.3-3.2 14.5-4.2 5.2-1 10.9-1.3 17.2-.7 8.3.3 16.2 2.3 23.3 5.9 1.4.7 2.8 1.5 4.1 2.3 1.3.8 2.6 1.7 3.9 2.6l.1.1c1.4.7 2.6 1.7 3.3 2.9.8 1.2 1.2 2.7 1.3 4.5.5 3.8.5 7.6-.1 11.5-.5 3.5-1.4 7-2.6 10.6h.5l-.1 1.3c-.4 5-1.5 8.8-3.3 11.2-.4.5-.8 1-1.2 1.4-.4.4-.8.7-1.3.9l-.4.4.5 23.4v.2l-.2.2-14.7 14.8v1.3l-1.4.1-1.9.1h-.7l-.5-.4-3.9-2.7-.5-.4-52.7-.7-.6 1.8-.2.5h-4.9l-.1-.5-.4-1.4-3.9.1zm63.1-2.5l.1-10.1-54.8-.8-.1 9.9 54.8 1z"/><path class="st0" d="M3.7 76.3h16c17.5 24.1 52 .4 108.7.3l151.1-.3v50.4C174 123.3 50.3 141.1 3.7 76.3z"/><path class="st1" d="M184.5 85v-.7h-22.8v30.5h8V86.4h2.2c2.8 0 4.2 1.6 4.2 4.8 0 1.4-.5 4-.9 5.3h1.2c1.1-3.3 3.9-8.7 8.1-11.5zm25.7-.1c0-2.1-.8-3.7-3.6-3.7-6.4 0-17.4 5.4-17.4 14v19.6h8V99.6c4.5-2.4 13-10.7 13-14.7zm-7.9 3.1c0 4.3-4.1 9-5.1 10v-5.3c0-2.6 2-7.4 3.5-7.4 1.3 0 1.6 1.3 1.6 2.7zm35.5 26.8V84.3h-8v3.3c-3 2.7-8.5 6.8-11.8 12.2-2.5 4.1-3.4 7.6-3.4 11.6 0 1.6.6 3.7 2.6 3.7 3.7 0 11-5.8 12.6-7.7v7.4h8zm-8-9c-1.1.8-2.3 1.6-4.1 1.6-3.2 0-3.8-1.1-3.8-4.9 0-4.6 4.4-9.5 7.9-12.8v16.1zm41.6 7.6v-.7h-5.2V84.3h-8v5.6c-3.4 4.2-10.7 13.3-10.7 22.7H242v.7c4.2 2.8 6.6 7.8 7.5 9.9h1.4c-.2-.8-.5-2.5-.5-3.7 0-3.3 1.4-4.8 4.2-4.8h4.2c2.8 0 4.2 1.5 4.2 4.8 0 1.2-.3 2.8-.5 3.7h1.4c.9-2 3.3-7 7.5-9.8zm-13.1-.8H250c0-8.8 5.7-16.9 8.3-20.1v20.1z"/><path class="st2" d="M280.3 1.4h47.5v103.4h-16.1v7.6h-18.3v-7.6h-13c6-31.6 7.8-65.2-.1-103.4zm50.8 0h47.5c-4.9 13-7.7 26.3-8.6 39.8-11.5 2-20.5 5.7-18.7 18.3l-.4 13.5c-4 2.5-9.2 4.3-15.6 6.1-1.9.6-3.4 1.4-4.2 2.6V1.4zm0 85.5c.4.8 1 1.7 1.7 2.6 0 0 4.1 4 7.5 4.4-.5 1.3-.5 5.6-.2 10.9h-9V86.9zm10.2-43.2c2.7 0 4.9 2.2 4.9 4.9s-2.2 4.9-4.9 4.9-4.9-2.2-4.9-4.9 2.2-4.9 4.9-4.9zm-25.7 0c2.7 0 4.9 2.2 4.9 4.9s-2.2 4.9-4.9 4.9-4.9-2.2-4.9-4.9 2.2-4.9 4.9-4.9zM63.1 69.8V18.5H49.6c-1.1 6.2-5.3 13.4-9.9 17.5V18.5H26.2v11.7C17 36.2 1 53.7 1 65.3c0 1.7.3 3.6 1.5 4.5h16.3c-2.5-5-3.3-8.5-3.1-14.1.4-9.2 6-18 10.4-22v36.1h13.5V40.9c2.8-2.1 7.6-7.5 9.9-12v40.9h13.6zm44.5-21.9c-2.1-2.8-4.6-10.6-17.8-10.6-2.6 0-6.3.8-9.1 1.7 0-7.5 1.9-13.3 7.8-18.4 2.1 3.3 5.5 5.4 5.5 8.7 0 1.3-.1 3.1-1.1 4.7h12.9c0-2-.8-5-2.8-8.2-3-4.7-8.7-4.3-14-11-7.2 8.1-21.2 16.9-21.2 33 0 9.4 9.7 12.1 13.3 16.6 1.2 1.5 3.1 3.8 2 7.5 6.7-2.1 13.9-3.4 19-9.7 3.5-4.2 4.5-6.9 5.3-10.1H94.7C96 54.2 96 57 96 58.3c0 3.3-4.3 7.7-8.2 9.4 1.3-2.8 1.4-6.2 1.4-8.6 0-5.3-6.2-10.7-8.1-16.8 2.3-.9 6.5-1.3 9.2-1.3 3.1 0 4.6 2.5 4.6 6.8h12.7zm44 21.9c-1.3-19.6-13.2-30.9-25.6-33.7v-14h3.7c4.8 0 7 2.6 7 8.1 0 1.7-.4 4.4-.8 5.9h2.3c1.9-4 5.5-11.6 12.6-16.3v-1.2h-38.3v51.3h39.1zm-15.5-12c0 4.1-1.4 9.3-5.7 9.3H126V38.9c6.2 1.3 10.1 9.6 10.1 18.9zm57-9.9c-2.1-2.8-4.6-10.6-17.8-10.6-2.6 0-6.3.8-9.1 1.7 0-7.5 1.9-13.3 7.8-18.4 2.1 3.3 5.5 5.4 5.5 8.7 0 1.3-.1 3.1-1.1 4.7h12.9c0-2-.8-5-2.8-8.2-3-4.7-8.7-4.3-14-11-7.2 8.1-21.2 16.9-21.2 33 0 9.4 9.7 12.1 13.3 16.6 1.2 1.5 3.1 3.8 2 7.5 6.7-2.1 13.9-3.4 19-9.7 3.5-4.2 4.5-6.9 5.3-10.1h-12.7c1.3 2.1 1.3 4.9 1.3 6.2 0 3.3-4.3 7.7-8.2 9.4 1.3-2.8 1.4-6.2 1.4-8.6 0-5.3-6.2-10.7-8.1-16.8 2.3-.9 6.5-1.3 9.2-1.3 3.1 0 4.6 2.5 4.6 6.8h12.7zm40.3 21.9V18.5h-13.5v11.7c-9.2 6-25.2 23.4-25.2 35.1 0 1.7.3 3.6 1.5 4.5h16.3c-2.5-5-3.3-8.5-3.1-14.1.4-9.2 6-18 10.4-22v36.1h13.6zm45.7-6.8c0-8.8-13.9-24.9-24-27.8V18.5h-13.5v51.3h31c4.1 0 6.5-2.5 6.5-6.8zm-14.6-2c0 3.1-1.4 5.2-4.1 5.2h-5.3V38.4c6.8 3.4 9.4 14 9.4 22.6z"/><ellipse class="st3" cx="430.4" cy="8.7" rx="6.4" ry="6.4"/><path class="st4" d="M427.3 12.7v-8h3.5c.7 0 1.3.1 1.6.2.4.1.7.4.9.8.2.4.3.8.3 1.2 0 .6-.2 1-.6 1.4-.4.4-.9.6-1.7.7.3.1.5.3.6.4.3.3.6.6.9 1.1l1.4 2.2h-1.3L432 11c-.3-.5-.6-.8-.8-1.1-.2-.3-.4-.4-.5-.5-.2-.1-.3-.2-.5-.2h-1.8v3.6h-1.1zm1.1-4.5h2.3c.5 0 .9-.1 1.1-.2.3-.1.5-.3.6-.5.1-.2.2-.5.2-.7 0-.4-.1-.7-.4-.9-.3-.2-.7-.4-1.3-.4h-2.5v2.7z"/></g></svg>